<svg xmlns="http://www.w3.org/2000/svg" xmlns:ev="http://www.w3.org/2001/xml-events" xmlns:xlink="http://www.w3.org/1999/xlink" baseProfile="full" height="300" version="1.1" width="1199"><defs><marker id="arrow" markerHeight="3.5" markerWidth="5" orient="auto" refX="5.0" refY="1.7"><polygon points="0,0 5,1.75 0,3.5"/></marker></defs><g style="fill:white;"><g transform="matrix(1.0, 0.0, 0.0, 1.0, 599.9670019798815, 150.00000000000003)"><g transform="matrix(47.61619064760877, 0.0, 0.0, 47.61619064760877, 0.0, 0.0)"><g><g transform="matrix(1.0, 0.0, 0.0, 1.0, -0.0, 2.220446049250313e-16)"><g><g style="fill: #ffffff;stroke: black;stroke-width: 3.597;" transform="matrix(1.0, 0.0, 0.0, 1.0, -12.000060000000001, -3.0001799999999994)"><path d="M 0.0 0.0 L 24.000120000000003 0.0 L 24.000120000000003 6.000359999999999 L 0.0 6.000359999999999 L 0.0 0.0 Z" style="vector-effect: non-scaling-stroke;"/></g><g transform="matrix(1.0, 0.0, 0.0, 1.0, -8.881784197001252e-16, -2.4001799999999998)"><g><g style="stroke: black;stroke-width: 3.597;" transform="matrix(1.0, 0.0, 0.0, 1.0, 0.0, 0.0)"><g/></g><g style="fill: #000000;stroke: black;stroke-width: 0.0;" transform="matrix(1.0, 0.0, 0.0, 1.0, 0.0, 0.5)"><text style="text-align:center; text-anchor:middle; dominant-baseline:middle;
                      font-family:sans-serif; font-weight: bold;
                      font-size:0.75px;
                      vector-effect: non-scaling-stroke;" transform="translate(-5e-05, 0)">arange</text></g><g style="stroke: black;stroke-width: 3.597;" transform="matrix(1.0, 0.0, 0.0, 1.0, 0.0, 1.0001)"><g/></g><g transform="matrix(1.0, 0.0, 0.0, 1.0, 0.0, 3.0001999999999995)"><g transform="matrix(1.0, 0.0, 0.0, 1.0, -10.0, -1.0000499999999999)"><g><g transform="matrix(1.0, 0.0, 0.0, 1.0, -5e-05, -0.25005)"><g><g style="stroke: black;stroke-width: 3.597;" transform="matrix(1.0, 0.0, 0.0, 1.0, 0.0, 0.0)"><g/></g><g style="fill: #000000;stroke: black;stroke-width: 0.0;" transform="matrix(1.0, 0.0, 0.0, 1.0, 0.0, 0.25)"><text style="text-align:center; text-anchor:middle; dominant-baseline:middle;
                      font-family:sans-serif; font-weight: bold;
                      font-size:0.5px;
                      vector-effect: non-scaling-stroke;" transform="translate(-5e-05, 0)">input</text></g><g style="stroke: black;stroke-width: 3.597;" transform="matrix(1.0, 0.0, 0.0, 1.0, 0.0, 0.5001)"><g/></g></g></g><g/><g style="stroke: black;stroke-width: 3.597;" transform="matrix(1.0, 0.0, 0.0, 1.0, 0.50005, 0.0)"><g/></g><g transform="matrix(1.0, 0.0, 0.0, 1.0, 3.50005, 0.0)"><g><g transform="matrix(1.0, 0.0, 0.0, 1.0, -0.0, -0.0)"><g><g style="fill: #ffa500;stroke: black;stroke-width: 3.597;fill-opacity: 0.7;" transform="matrix(1.0, 0.0, 0.0, 1.0, -0.5, -0.5)"><path d="M 0.0 0.0 L 1.0 0.0 L 1.0 1.0 L 0.0 1.0 L 0.0 0.0 Z" style="vector-effect: non-scaling-stroke;"/></g><g transform="matrix(1.0, 0.0, 0.0, 1.0, 0.5, 0.0)"><g transform="matrix(1.0, -0.0, 0.0, 1.0, 0.0, 0.0)"><g/></g></g><g transform="matrix(1.0, 0.0, 0.0, 1.0, 0.5, 0.0)"><g/></g><g transform="matrix(1.0, 0.0, 0.0, 1.0, 0.0, 0.5)"><g transform="matrix(0.0, -1.0, 1.0, 0.0, 0.0, 0.0)"><g/></g></g><g transform="matrix(1.0, 0.0, 0.0, 1.0, 0.0, 0.5)"><g/></g></g></g><g/><g style="stroke: black;stroke-width: 3.597;" transform="matrix(1.0, 0.0, 0.0, 1.0, 3.0, 0.0)"><g/></g><g transform="matrix(1.0, 0.0, 0.0, 1.0, 5.0, 0.0)"><g><g transform="matrix(1.0, 0.0, 0.0, 1.0, -0.0, -0.0)"><g><g style="fill: #ffa500;stroke: black;stroke-width: 3.597;fill-opacity: 0.5800000000000001;" transform="matrix(1.0, 0.0, 0.0, 1.0, -0.5, -0.5)"><path d="M 0.0 0.0 L 1.0 0.0 L 1.0 1.0 L 0.0 1.0 L 0.0 0.0 Z" style="vector-effect: non-scaling-stroke;"/></g><g transform="matrix(1.0, 0.0, 0.0, 1.0, 0.5, 0.0)"><g transform="matrix(1.0, -0.0, 0.0, 1.0, 0.0, 0.0)"><g/></g></g><g transform="matrix(1.0, 0.0, 0.0, 1.0, 0.5, 0.0)"><g/></g><g transform="matrix(1.0, 0.0, 0.0, 1.0, 0.0, 0.5)"><g transform="matrix(0.0, -1.0, 1.0, 0.0, 0.0, 0.0)"><g/></g></g><g transform="matrix(1.0, 0.0, 0.0, 1.0, 0.0, 0.5)"><g/></g></g></g><g/></g></g><g style="stroke: black;stroke-width: 3.597;" transform="matrix(1.0, 0.0, 0.0, 1.0, 7.0, 0.0)"><g/></g><g transform="matrix(1.0, 0.0, 0.0, 1.0, 12.0, 0.0)"><g><g transform="matrix(1.0, 0.0, 0.0, 1.0, -0.0, -0.0)"><g><g style="fill: #ffa500;stroke: black;stroke-width: 3.597;fill-opacity: 0.9400000000000001;" transform="matrix(1.0, 0.0, 0.0, 1.0, -0.5, -0.5)"><path d="M 0.0 0.0 L 1.0 0.0 L 1.0 1.0 L 0.0 1.0 L 0.0 0.0 Z" style="vector-effect: non-scaling-stroke;"/></g><g transform="matrix(1.0, 0.0, 0.0, 1.0, 0.5, 0.0)"><g transform="matrix(1.0, -0.0, 0.0, 1.0, 0.0, 0.0)"><g/></g></g><g transform="matrix(1.0, 0.0, 0.0, 1.0, 0.5, 0.0)"><g/></g><g transform="matrix(1.0, 0.0, 0.0, 1.0, 0.0, 0.5)"><g transform="matrix(0.0, -1.0, 1.0, 0.0, 0.0, 0.0)"><g/></g></g><g transform="matrix(1.0, 0.0, 0.0, 1.0, 0.0, 0.5)"><g/></g></g></g><g/></g></g></g></g><g style="stroke: black;stroke-width: 3.597;" transform="matrix(0.0, -1.0, 1.0, 0.0, 0.0, 1.0000499999999999)"><g/></g><g transform="matrix(1.0, 0.0, 0.0, 1.0, 0.0, 2.0000999999999998)"><g><g transform="matrix(1.0, 0.0, 0.0, 1.0, -5e-05, -0.25005)"><g><g style="stroke: black;stroke-width: 3.597;" transform="matrix(1.0, 0.0, 0.0, 1.0, 0.0, 0.0)"><g/></g><g style="fill: #000000;stroke: black;stroke-width: 0.0;" transform="matrix(1.0, 0.0, 0.0, 1.0, 0.0, 0.25)"><text style="text-align:center; text-anchor:middle; dominant-baseline:middle;
                      font-family:sans-serif; font-weight: bold;
                      font-size:0.5px;
                      vector-effect: non-scaling-stroke;" transform="translate(-5e-05, 0)">output</text></g><g style="stroke: black;stroke-width: 3.597;" transform="matrix(1.0, 0.0, 0.0, 1.0, 0.0, 0.5001)"><g/></g></g></g><g/><g style="stroke: black;stroke-width: 3.597;" transform="matrix(1.0, 0.0, 0.0, 1.0, 0.50005, 0.0)"><g/></g><g transform="matrix(1.0, 0.0, 0.0, 1.0, 3.50005, 0.0)"><g><g transform="matrix(1.0, 0.0, 0.0, 1.0, -2.0, -0.0)"><g><g style="stroke: black;stroke-width: 3.597;" transform="matrix(1.0, 0.0, 0.0, 1.0, -0.5, -0.5)"><path d="M 0.0 0.0 L 1.0 0.0 L 1.0 1.0 L 0.0 1.0 L 0.0 0.0 Z" style="vector-effect: non-scaling-stroke;"/></g><g transform="matrix(1.0, 0.0, 0.0, 1.0, 0.5, 0.0)"><g transform="matrix(1.0, -0.0, 0.0, 1.0, 0.0, 0.0)"><g/></g></g><g transform="matrix(1.0, 0.0, 0.0, 1.0, 1.0, 0.0)"><g><g style="fill: #ffa500;stroke: black;stroke-width: 3.597;fill-opacity: 0.46;" transform="matrix(1.0, 0.0, 0.0, 1.0, -0.5, -0.5)"><path d="M 0.0 0.0 L 1.0 0.0 L 1.0 1.0 L 0.0 1.0 L 0.0 0.0 Z" style="vector-effect: non-scaling-stroke;"/></g><g transform="matrix(1.0, 0.0, 0.0, 1.0, 0.5, 0.0)"><g transform="matrix(1.0, -0.0, 0.0, 1.0, 0.0, 0.0)"><g/></g></g><g style="fill: #ffa500;stroke: black;stroke-width: 3.597;fill-opacity: 0.52;" transform="matrix(1.0, 0.0, 0.0, 1.0, 0.5, -0.5)"><path d="M 0.0 0.0 L 1.0 0.0 L 1.0 1.0 L 0.0 1.0 L 0.0 0.0 Z" style="vector-effect: non-scaling-stroke;"/></g><g transform="matrix(1.0, 0.0, 0.0, 1.0, 1.5, 0.0)"><g transform="matrix(1.0, -0.0, 0.0, 1.0, 0.0, 0.0)"><g/></g></g><g transform="matrix(1.0, 0.0, 0.0, 1.0, 2.0, 0.0)"><g><g style="fill: #ffa500;stroke: black;stroke-width: 3.597;fill-opacity: 0.5800000000000001;" transform="matrix(1.0, 0.0, 0.0, 1.0, -0.5, -0.5)"><path d="M 0.0 0.0 L 1.0 0.0 L 1.0 1.0 L 0.0 1.0 L 0.0 0.0 Z" style="vector-effect: non-scaling-stroke;"/></g><g transform="matrix(1.0, 0.0, 0.0, 1.0, 0.5, 0.0)"><g transform="matrix(1.0, -0.0, 0.0, 1.0, 0.0, 0.0)"><g/></g></g><g style="fill: #ffa500;stroke: black;stroke-width: 3.597;fill-opacity: 0.64;" transform="matrix(1.0, 0.0, 0.0, 1.0, 0.5, -0.5)"><path d="M 0.0 0.0 L 1.0 0.0 L 1.0 1.0 L 0.0 1.0 L 0.0 0.0 Z" style="vector-effect: non-scaling-stroke;"/></g></g></g></g></g><g transform="matrix(1.0, 0.0, 0.0, 1.0, 0.0, 0.5)"><g transform="matrix(0.0, -1.0, 1.0, 0.0, 0.0, 0.0)"><g/></g></g><g transform="matrix(1.0, 0.0, 0.0, 1.0, 0.0, 0.5)"><g/></g></g></g><g/><g style="stroke: black;stroke-width: 3.597;" transform="matrix(1.0, 0.0, 0.0, 1.0, 3.0, 0.0)"><g/></g><g transform="matrix(1.0, 0.0, 0.0, 1.0, 5.0, 0.0)"><g><g transform="matrix(1.0, 0.0, 0.0, 1.0, -1.0, -0.0)"><g><g style="stroke: black;stroke-width: 3.597;" transform="matrix(1.0, 0.0, 0.0, 1.0, -0.5, -0.5)"><path d="M 0.0 0.0 L 1.0 0.0 L 1.0 1.0 L 0.0 1.0 L 0.0 0.0 Z" style="vector-effect: non-scaling-stroke;"/></g><g transform="matrix(1.0, 0.0, 0.0, 1.0, 0.5, 0.0)"><g transform="matrix(1.0, -0.0, 0.0, 1.0, 0.0, 0.0)"><g/></g></g><g transform="matrix(1.0, 0.0, 0.0, 1.0, 1.0, 0.0)"><g><g style="fill: #ffa500;stroke: black;stroke-width: 3.597;fill-opacity: 0.46;" transform="matrix(1.0, 0.0, 0.0, 1.0, -0.5, -0.5)"><path d="M 0.0 0.0 L 1.0 0.0 L 1.0 1.0 L 0.0 1.0 L 0.0 0.0 Z" style="vector-effect: non-scaling-stroke;"/></g><g transform="matrix(1.0, 0.0, 0.0, 1.0, 0.5, 0.0)"><g transform="matrix(1.0, -0.0, 0.0, 1.0, 0.0, 0.0)"><g/></g></g><g style="fill: #ffa500;stroke: black;stroke-width: 3.597;fill-opacity: 0.52;" transform="matrix(1.0, 0.0, 0.0, 1.0, 0.5, -0.5)"><path d="M 0.0 0.0 L 1.0 0.0 L 1.0 1.0 L 0.0 1.0 L 0.0 0.0 Z" style="vector-effect: non-scaling-stroke;"/></g></g></g><g transform="matrix(1.0, 0.0, 0.0, 1.0, 0.0, 0.5)"><g transform="matrix(0.0, -1.0, 1.0, 0.0, 0.0, 0.0)"><g/></g></g><g transform="matrix(1.0, 0.0, 0.0, 1.0, 0.0, 0.5)"><g/></g></g></g><g/></g></g><g style="stroke: black;stroke-width: 3.597;" transform="matrix(1.0, 0.0, 0.0, 1.0, 7.0, 0.0)"><g/></g><g transform="matrix(1.0, 0.0, 0.0, 1.0, 12.0, 0.0)"><g><g transform="matrix(1.0, 0.0, 0.0, 1.0, -4.0, -0.0)"><g><g style="stroke: black;stroke-width: 3.597;" transform="matrix(1.0, 0.0, 0.0, 1.0, -0.5, -0.5)"><path d="M 0.0 0.0 L 1.0 0.0 L 1.0 1.0 L 0.0 1.0 L 0.0 0.0 Z" style="vector-effect: non-scaling-stroke;"/></g><g transform="matrix(1.0, 0.0, 0.0, 1.0, 0.5, 0.0)"><g transform="matrix(1.0, -0.0, 0.0, 1.0, 0.0, 0.0)"><g/></g></g><g transform="matrix(1.0, 0.0, 0.0, 1.0, 1.0, 0.0)"><g><g style="fill: #ffa500;stroke: black;stroke-width: 3.597;fill-opacity: 0.46;" transform="matrix(1.0, 0.0, 0.0, 1.0, -0.5, -0.5)"><path d="M 0.0 0.0 L 1.0 0.0 L 1.0 1.0 L 0.0 1.0 L 0.0 0.0 Z" style="vector-effect: non-scaling-stroke;"/></g><g transform="matrix(1.0, 0.0, 0.0, 1.0, 0.5, 0.0)"><g transform="matrix(1.0, -0.0, 0.0, 1.0, 0.0, 0.0)"><g/></g></g><g style="fill: #ffa500;stroke: black;stroke-width: 3.597;fill-opacity: 0.52;" transform="matrix(1.0, 0.0, 0.0, 1.0, 0.5, -0.5)"><path d="M 0.0 0.0 L 1.0 0.0 L 1.0 1.0 L 0.0 1.0 L 0.0 0.0 Z" style="vector-effect: non-scaling-stroke;"/></g><g transform="matrix(1.0, 0.0, 0.0, 1.0, 1.5, 0.0)"><g transform="matrix(1.0, -0.0, 0.0, 1.0, 0.0, 0.0)"><g/></g></g><g transform="matrix(1.0, 0.0, 0.0, 1.0, 2.0, 0.0)"><g><g style="fill: #ffa500;stroke: black;stroke-width: 3.597;fill-opacity: 0.5800000000000001;" transform="matrix(1.0, 0.0, 0.0, 1.0, -0.5, -0.5)"><path d="M 0.0 0.0 L 1.0 0.0 L 1.0 1.0 L 0.0 1.0 L 0.0 0.0 Z" style="vector-effect: non-scaling-stroke;"/></g><g transform="matrix(1.0, 0.0, 0.0, 1.0, 0.5, 0.0)"><g transform="matrix(1.0, -0.0, 0.0, 1.0, 0.0, 0.0)"><g/></g></g><g style="fill: #ffa500;stroke: black;stroke-width: 3.597;fill-opacity: 0.64;" transform="matrix(1.0, 0.0, 0.0, 1.0, 0.5, -0.5)"><path d="M 0.0 0.0 L 1.0 0.0 L 1.0 1.0 L 0.0 1.0 L 0.0 0.0 Z" style="vector-effect: non-scaling-stroke;"/></g></g></g><g transform="matrix(1.0, 0.0, 0.0, 1.0, 3.5, 0.0)"><g transform="matrix(1.0, -0.0, 0.0, 1.0, 0.0, 0.0)"><g/></g></g><g transform="matrix(1.0, 0.0, 0.0, 1.0, 4.0, 0.0)"><g><g style="fill: #ffa500;stroke: black;stroke-width: 3.597;fill-opacity: 0.7;" transform="matrix(1.0, 0.0, 0.0, 1.0, -0.5, -0.5)"><path d="M 0.0 0.0 L 1.0 0.0 L 1.0 1.0 L 0.0 1.0 L 0.0 0.0 Z" style="vector-effect: non-scaling-stroke;"/></g><g transform="matrix(1.0, 0.0, 0.0, 1.0, 0.5, 0.0)"><g transform="matrix(1.0, -0.0, 0.0, 1.0, 0.0, 0.0)"><g/></g></g><g style="fill: #ffa500;stroke: black;stroke-width: 3.597;fill-opacity: 0.76;" transform="matrix(1.0, 0.0, 0.0, 1.0, 0.5, -0.5)"><path d="M 0.0 0.0 L 1.0 0.0 L 1.0 1.0 L 0.0 1.0 L 0.0 0.0 Z" style="vector-effect: non-scaling-stroke;"/></g><g transform="matrix(1.0, 0.0, 0.0, 1.0, 1.5, 0.0)"><g transform="matrix(1.0, -0.0, 0.0, 1.0, 0.0, 0.0)"><g/></g></g><g transform="matrix(1.0, 0.0, 0.0, 1.0, 2.0, 0.0)"><g><g style="fill: #ffa500;stroke: black;stroke-width: 3.597;fill-opacity: 0.8200000000000001;" transform="matrix(1.0, 0.0, 0.0, 1.0, -0.5, -0.5)"><path d="M 0.0 0.0 L 1.0 0.0 L 1.0 1.0 L 0.0 1.0 L 0.0 0.0 Z" style="vector-effect: non-scaling-stroke;"/></g><g transform="matrix(1.0, 0.0, 0.0, 1.0, 0.5, 0.0)"><g transform="matrix(1.0, -0.0, 0.0, 1.0, 0.0, 0.0)"><g/></g></g><g style="fill: #ffa500;stroke: black;stroke-width: 3.597;fill-opacity: 0.88;" transform="matrix(1.0, 0.0, 0.0, 1.0, 0.5, -0.5)"><path d="M 0.0 0.0 L 1.0 0.0 L 1.0 1.0 L 0.0 1.0 L 0.0 0.0 Z" style="vector-effect: non-scaling-stroke;"/></g></g></g></g></g></g></g><g transform="matrix(1.0, 0.0, 0.0, 1.0, 0.0, 0.5)"><g transform="matrix(0.0, -1.0, 1.0, 0.0, 0.0, 0.0)"><g/></g></g><g transform="matrix(1.0, 0.0, 0.0, 1.0, 0.0, 0.5)"><g/></g></g></g><g/></g></g></g></g></g></g></g></g></g><g/></g></g></g></g><g/></g></g></g></g></svg>